<svg width="114" height="32" viewBox="0 0 114 32" fill="none" xmlns="http://www.w3.org/2000/svg">
<path d="M55.2706 25.0368H51.7556C51.7334 25.0368 51.7334 25.0368 51.7223 25.0257L48.6967 21.3327L45.6712 25.0257C45.66 25.0368 45.6489 25.0368 45.6378 25.0368H42.8236C42.8013 25.0368 42.7902 25.0257 42.7791 25.0146C42.7791 25.0034 42.7791 24.9812 42.7902 24.9701L47.2507 19.4974L42.8458 14.0803C42.8347 14.0581 42.8347 14.0469 42.8347 14.0247C42.8458 14.0136 42.8569 14.0024 42.8681 14.0024H46.3831C46.3942 14.0024 46.4053 14.0136 46.4164 14.0247L49.0749 17.3172L51.7779 14.0247C51.789 14.0136 51.8001 14.0024 51.8112 14.0024H54.6699C54.6811 14.0024 54.7033 14.0136 54.7144 14.0247C54.7256 14.0469 54.7144 14.0581 54.7033 14.0803L50.5321 19.0969L55.3151 24.9701C55.3262 24.9812 55.3262 25.0034 55.3262 25.0146C55.304 25.0368 55.2929 25.0368 55.2706 25.0368Z" fill="#191825" fill-opacity="0.5"/>
<path d="M74.2804 15.9379C72.7232 15.9379 71.6665 16.8834 71.355 18.5185H76.6497V18.4073C76.6497 17.1059 75.682 15.9379 74.2804 15.9379ZM79.3749 20.2093C79.3638 20.2204 79.3527 20.2315 79.3416 20.2315H71.2994C71.4662 22.1002 72.6787 23.1681 74.6475 23.1681C75.86 23.1681 77.1503 22.7565 78.9634 21.7888C78.9967 21.7665 79.0301 21.7999 79.0301 21.8333V24.3027C79.0301 24.3249 79.019 24.336 79.0079 24.336C77.3171 25.0479 75.6152 25.5374 74.2804 25.5374C70.8211 25.5374 68.3072 23.0124 68.3072 19.5419C68.3072 16.0714 70.8211 13.5464 74.2804 13.5464C77.4395 13.5464 79.4639 15.6709 79.4639 18.5964C79.4639 19.0747 79.3861 20.1759 79.3749 20.2093Z" fill="#191825" fill-opacity="0.5"/>
<path d="M95.7039 11.711C94.7139 11.711 93.9131 10.9212 93.9131 9.95349C93.9131 8.95239 94.7139 8.14038 95.7039 8.14038C96.6939 8.14038 97.4948 8.95239 97.4948 9.95349C97.4948 10.9212 96.6939 11.711 95.7039 11.711ZM94.2579 25.0368C94.2245 25.0368 94.2134 25.0256 94.2134 24.9923V14.0358C94.2134 14.0135 94.2245 13.9913 94.2468 13.9913H97.1499C97.1722 13.9913 97.1833 14.0135 97.1833 14.0358V24.9923C97.1833 25.0256 97.1611 25.0368 97.1388 25.0368H94.2579Z" fill="#191825" fill-opacity="0.5"/>
<path d="M60.5874 23.3906C60.0646 23.3906 59.5307 23.3127 58.9078 23.157L58.9189 16.127C59.6419 15.8934 60.2648 15.7933 60.8877 15.7933C62.9011 15.7933 64.247 17.2727 64.247 19.4863C64.247 21.8555 62.8121 23.3906 60.5874 23.3906ZM61.3772 13.5464C60.554 13.5464 59.7309 13.691 58.8633 13.9913H55.9712C55.949 13.9913 55.9267 14.0136 55.9267 14.0358V32C56.7943 31.8777 57.8622 31.5662 58.9078 30.8321V25.3705C59.6197 25.4706 60.2092 25.5374 60.7765 25.5374C64.7364 25.5374 67.2948 23.1681 67.2948 19.4974C67.2948 15.9935 64.8588 13.5464 61.3772 13.5464Z" fill="#191825" fill-opacity="0.5"/>
<path d="M88.9743 22.4784C88.0733 22.9567 87.2613 23.1792 86.5049 23.1792C84.714 23.1792 83.6351 21.9111 83.6351 19.7866C83.6351 17.3394 85.0032 15.7488 87.1278 15.7488C87.7173 15.7488 88.2846 15.8934 88.9743 16.2049V22.4784ZM88.9743 8.19604V13.9246C88.1289 13.6799 87.3836 13.5686 86.6273 13.5686C83.179 13.5686 80.5873 16.1604 80.5873 19.6086C80.5873 23.0346 82.8787 25.5262 86.0377 25.5262C87.1278 25.5262 88.1512 25.2481 89.3525 24.6364V25.6263C90.1422 25.4706 91.0544 25.1592 91.9553 24.514V7.01697C91.0766 7.13932 90.031 7.43965 88.9743 8.19604Z" fill="#191825" fill-opacity="0.5"/>
<path d="M107.25 22.4562C106.371 22.9567 105.626 23.2014 104.959 23.2014C103.034 23.2014 101.889 21.9334 101.889 19.8088C101.889 17.395 103.246 15.771 105.259 15.771C105.793 15.771 106.449 15.9824 107.25 16.4051V22.4562ZM110.231 13.8578C110.231 13.7911 110.176 13.7355 110.109 13.7355H107.762C107.695 13.7355 107.628 13.7911 107.628 13.8578V14.2583H107.573C106.494 13.7799 105.559 13.5686 104.658 13.5686C101.41 13.5686 98.8631 16.2605 98.8631 19.7087C98.8631 23.1903 101.143 25.5262 104.536 25.5262C105.437 25.5262 106.605 25.4595 107.695 24.2136V25.6263C108.463 25.4595 109.375 25.1369 110.231 24.514V13.8578Z" fill="#191825" fill-opacity="0.5"/>
<path d="M34.7925 22.3004H42.0782C41.967 23.1124 41.6889 24.069 41.066 25.0367H33.491C32.5678 25.0367 31.8003 24.3137 31.7113 23.4127C31.7113 23.4016 31.7002 23.3905 31.7002 23.3682V8.99687C31.7002 8.98575 31.7113 8.97462 31.7113 8.9635C31.8003 8.05139 32.5678 7.32837 33.491 7.32837H42.0671C41.9559 8.14037 41.6778 9.11923 41.0438 10.087H34.7925V14.0024H40.9882C41.0104 14.0024 41.0327 14.0246 41.0327 14.0469V16.761C41.0327 16.7832 41.0104 16.8055 40.9882 16.8055H34.7925V22.3004Z" fill="#191825" fill-opacity="0.5"/>
<path d="M25.6715 25.2704C24.9485 25.2704 24.5035 24.7031 24.5035 24.0135C24.5035 23.2793 25.0152 22.7565 25.6715 22.7565C26.3166 22.7565 26.8283 23.2682 26.8283 24.0135C26.8283 24.7587 26.3166 25.2704 25.6715 25.2704ZM25.6715 22.623C24.9373 22.623 24.3033 23.1792 24.3033 24.0135C24.3033 24.8032 24.8706 25.4039 25.6715 25.4039C26.3945 25.4039 27.0285 24.8477 27.0285 24.0135C27.0285 23.1792 26.4056 22.623 25.6715 22.623Z" fill="#191825" fill-opacity="0.5"/>
<path d="M25.3486 23.9022V23.3905H25.6934C25.8714 23.3905 26.0716 23.4128 26.0716 23.6241C26.0716 23.88 25.8825 23.8911 25.6712 23.8911C25.66 23.9022 25.3486 23.9022 25.3486 23.9022ZM26.3163 23.6575C26.3163 23.3238 26.1161 23.1792 25.7156 23.1792H25.0927V24.8255H25.3597V24.1247H25.6155L26.0382 24.8255H26.3497L25.8936 24.1024C26.1383 24.0802 26.3163 23.9578 26.3163 23.6575Z" fill="#191825" fill-opacity="0.5"/>
<path d="M112.634 15.8156C111.911 15.8156 111.466 15.2483 111.466 14.5586C111.466 13.8245 111.977 13.3017 112.634 13.3017C113.279 13.3017 113.79 13.8134 113.79 14.5586C113.79 15.3039 113.279 15.8156 112.634 15.8156ZM112.634 13.1793C111.899 13.1793 111.265 13.7355 111.265 14.5697C111.265 15.3595 111.833 15.9602 112.634 15.9602C113.357 15.9602 113.991 15.404 113.991 14.5697C113.991 13.7244 113.357 13.1793 112.634 13.1793Z" fill="#191825" fill-opacity="0.5"/>
<path d="M112.3 14.4474V13.9468H112.645C112.823 13.9468 113.023 13.9691 113.023 14.1804C113.023 14.4362 112.834 14.4474 112.623 14.4474H112.3ZM113.279 14.2138C113.279 13.8801 113.079 13.7355 112.678 13.7355H112.055V15.3817H112.322V14.681H112.578L113.001 15.3817H113.312L112.856 14.6587C113.09 14.6365 113.279 14.5141 113.279 14.2138Z" fill="#191825" fill-opacity="0.5"/>
<path d="M16.272 10.0759L15.7492 8.58534L11.2554 2.58985L12.0563 2.38963L19.787 9.07476L24.3365 7.77333C24.8704 7.63985 25.4822 7.60648 25.9382 7.60648C24.5144 4.52531 21.8893 1.98919 18.4411 0.765622C11.6225 -1.67039 4.11422 1.9002 1.68933 8.72994C0.932943 10.8434 0.766093 13.0236 1.07755 15.0925L11.9673 11.3106L16.272 10.0759Z" fill="#191825" fill-opacity="0.5"/>
<path d="M26.4277 8.78552C26.0273 9.04136 25.4377 9.38618 24.8593 9.57528L20.2988 10.8767L17.2621 20.643L16.4723 20.8989L17.1175 13.4462L16.7615 11.9001L12.4902 13.1236L1.18884 15.7599C2.08983 20.098 5.15988 23.891 9.64259 25.4817C16.4723 27.9177 23.9695 24.3471 26.4055 17.5174C27.4511 14.5919 27.3843 11.5219 26.4277 8.78552Z" fill="#191825" fill-opacity="0.5"/>
<path d="M16.7505 11.889L17.1065 13.4352L16.4613 20.8878L17.2511 20.632L20.2877 10.8657L24.8483 9.56422C25.4267 9.37513 26.0163 9.04143 26.4167 8.77447C26.2721 8.37403 26.1164 7.98471 25.9384 7.59539C25.4712 7.59539 24.8706 7.61764 24.3366 7.76224L19.7872 9.06367L12.0565 2.37854L11.2556 2.57876L15.7383 8.57425L16.2611 10.0648L11.9563 11.2995L1.06659 15.0814C1.09996 15.3039 1.14445 15.5375 1.18895 15.7599L12.4791 13.1014L16.7505 11.889Z" fill="white"/>
</svg>
