<svg width="104" height="32" viewBox="0 0 104 32" fill="none" xmlns="http://www.w3.org/2000/svg">
<path d="M54.8372 8.04048C54.8372 9.19374 53.908 10.1224 52.7547 10.1224C51.6015 10.1224 50.6728 9.19374 50.6728 8.04048C50.6728 6.88723 51.5698 5.9586 52.7547 5.9586C53.9406 5.9906 54.8372 6.91955 54.8372 8.04048ZM46.2524 12.2369V12.7495C46.2524 12.7495 45.2598 11.4676 43.1456 11.4676C39.6545 11.4676 36.9313 14.1264 36.9313 17.8099C36.9313 21.4617 39.6225 24.1522 43.1456 24.1522C45.2918 24.1522 46.2524 22.8389 46.2524 22.8389V23.3832C46.2524 23.6395 46.4451 23.8312 46.7011 23.8312H49.2953V11.787H46.7011C46.4451 11.7879 46.2524 12.0126 46.2524 12.2369ZM46.2524 19.9561C45.7724 20.661 44.8112 21.2697 43.6583 21.2697C41.6084 21.2697 40.0385 19.9884 40.0385 17.8099C40.0385 15.6317 41.6084 14.3504 43.6583 14.3504C44.7795 14.3504 45.8044 14.9911 46.2524 15.6637V19.9561ZM51.2175 11.7879H54.2923V23.8322H51.2175V11.7879ZM97.1509 11.4673C95.0367 11.4673 94.0435 12.7492 94.0435 12.7492V5.9906H90.9687V23.8322H93.5635C93.8198 23.8322 94.0115 23.6078 94.0115 23.3835V22.8392C94.0115 22.8392 95.0047 24.1525 97.1183 24.1525C100.61 24.1525 103.333 21.4626 103.333 17.8108C103.333 14.1591 100.61 11.4673 97.1509 11.4673ZM96.6383 21.2373C95.4527 21.2373 94.5241 20.6293 94.0435 19.9241V15.6317C94.5241 14.9911 95.549 14.3184 96.6383 14.3184C98.6882 14.3184 100.258 15.5997 100.258 17.7779C100.258 19.9561 98.6885 21.2373 96.6383 21.2373ZM89.3674 16.6893V23.8642H86.2919V17.0413C86.2919 15.0557 85.6513 14.2544 83.9227 14.2544C82.9941 14.2544 82.0328 14.7351 81.4232 15.44V23.8325H78.3491V11.7882H80.7826C81.0389 11.7882 81.2313 12.0126 81.2313 12.2369V12.7495C82.1282 11.8202 83.3131 11.4676 84.4981 11.4676C85.8436 11.4676 86.9649 11.8526 87.8618 12.6212C88.9505 13.5181 89.3674 14.6711 89.3674 16.6893ZM70.8846 11.4673C68.771 11.4673 67.7778 12.7492 67.7778 12.7492V5.9906H64.703V23.8322H67.2971C67.5535 23.8322 67.7458 23.6078 67.7458 23.3835V22.8392C67.7458 22.8392 68.739 24.1525 70.8526 24.1525C74.3443 24.1525 77.0669 21.4626 77.0669 17.8108C77.0989 14.1588 74.3764 11.4673 70.8846 11.4673ZM70.372 21.2373C69.187 21.2373 68.2584 20.6293 67.7778 19.9241V15.6317C68.2584 14.9911 69.2833 14.3184 70.372 14.3184C72.4225 14.3184 73.9917 15.5997 73.9917 17.7779C73.9917 19.9561 72.4225 21.2373 70.372 21.2373ZM62.0441 11.4673C62.9727 11.4673 63.4534 11.6279 63.4534 11.6279V14.4784C63.4534 14.4784 60.8909 13.6135 59.2896 15.4397V23.8638H56.2142V11.7879H58.809C59.0653 11.7879 59.257 12.0122 59.257 12.2366V12.7492C59.8342 12.0762 61.0835 11.4673 62.0441 11.4673ZM30.1091 22.7429C29.9491 22.3586 29.7888 21.9423 29.6288 21.5897C29.3721 21.0133 29.1158 20.4684 28.8922 19.9561L28.8601 19.9241C26.6496 15.1191 24.2798 10.2507 21.7809 5.4463L21.6849 5.25365C21.4221 4.75525 21.166 4.25336 20.9166 3.74809C20.596 3.17114 20.276 2.56315 19.7634 1.9862C18.7384 0.704946 17.2649 0 15.6956 0C14.0937 0 12.6525 0.70495 11.5959 1.92189C11.1152 2.49819 10.7626 3.10683 10.4426 3.68377C10.1926 4.18872 9.93649 4.69061 9.6743 5.18934L9.57798 5.38197C7.11147 10.1864 4.70928 15.0551 2.49908 19.8598L2.46677 19.9234C2.24277 20.4367 1.98614 20.981 1.72982 21.557C1.56982 21.9096 1.40983 22.294 1.24983 22.7103C0.833199 23.8952 0.704875 25.0165 0.865512 26.17C1.21782 28.5726 2.81907 30.5898 5.02959 31.4874C5.86253 31.84 6.72747 32 7.6241 32C7.88041 32 8.20041 31.968 8.45705 31.9357C9.51431 31.8077 10.6032 31.4557 11.6605 30.8471C12.9738 30.1101 14.223 29.0535 15.6323 27.5159C17.0415 29.0535 18.3228 30.1101 19.604 30.8471C20.6616 31.4557 21.7502 31.8077 22.8071 31.9357C23.0635 31.9683 23.3841 32 23.6404 32C24.5374 32 25.434 31.84 26.2346 31.4874C28.4771 30.5898 30.0464 28.5406 30.399 26.17C30.6534 25.0491 30.5254 23.9285 30.1091 22.7429ZM15.6633 24.4085C13.9334 22.2303 12.8122 20.1804 12.4282 18.4512C12.2682 17.7142 12.2358 17.0736 12.3322 16.497C12.3958 15.9843 12.5885 15.5357 12.8448 15.1514C13.4534 14.2871 14.4784 13.7421 15.6636 13.7421C16.8492 13.7421 17.9061 14.2548 18.4828 15.1514C18.7391 15.5357 18.9311 15.9846 18.9957 16.497C19.0914 17.0739 19.0594 17.7462 18.8994 18.4512C18.5138 20.1484 17.3925 22.1986 15.6633 24.4085ZM28.4432 25.914C28.2192 27.5796 27.0979 29.0215 25.5287 29.6621C24.7601 29.9821 23.9268 30.0784 23.0945 29.9821C22.2939 29.8858 21.4926 29.6295 20.6603 29.1495C19.5071 28.5082 18.3541 27.5159 17.0086 26.042C19.1224 23.4478 20.4037 21.077 20.8843 18.9635C21.1086 17.9702 21.141 17.0736 21.0443 16.2403C20.9166 15.4397 20.628 14.7027 20.1797 14.0621C19.1861 12.6202 17.5202 11.7879 15.663 11.7879C13.8057 11.7879 12.1398 12.6529 11.1469 14.0621C10.6986 14.7027 10.41 15.4397 10.282 16.2403C10.154 17.0736 10.1856 18.0022 10.442 18.9635C10.9223 21.077 12.2355 23.4795 14.3174 26.074C13.0042 27.5476 11.8189 28.5409 10.6656 29.1815C9.83269 29.6621 9.03239 29.9184 8.23177 30.0141C7.36715 30.1104 6.53388 29.9821 5.79726 29.6941C4.22801 29.0535 3.10675 27.6116 2.88276 25.946C2.78676 25.1454 2.85044 24.3448 3.17107 23.4478C3.26675 23.1272 3.42738 22.8072 3.58738 22.4229C3.8117 21.9103 4.06737 21.3653 4.32401 20.821L4.35633 20.7573C6.56621 15.9843 8.9364 11.1156 11.4029 6.37523L11.4989 6.1826C11.7555 5.70261 12.0119 5.18998 12.2678 4.70935C12.5242 4.19672 12.8122 3.71609 13.1648 3.29945C13.8374 2.53147 14.734 2.11452 15.7273 2.11452C16.7206 2.11452 17.6172 2.53147 18.2898 3.29945C18.6424 3.71705 18.9304 4.19768 19.1867 4.70935C19.4434 5.18998 19.6997 5.70261 19.9554 6.1826L20.0517 6.37523C22.4806 11.1353 24.8193 15.9409 27.0666 20.7893V20.8213C27.3232 21.3346 27.5472 21.9106 27.8035 22.4239C27.9635 22.8075 28.1238 23.1275 28.2198 23.4482C28.4755 24.2802 28.5715 25.0814 28.4432 25.914Z" fill="#191825" fill-opacity="0.5"/>
</svg>
