<svg width="780" height="288" viewBox="0 0 780 288" fill="none" xmlns="http://www.w3.org/2000/svg">
<g clip-path="url(#clip0_1_89)">
<path d="M28.5433 52.287L28.0175 51.6364C29.332 50.5955 30.6653 49.5732 32.0173 48.5695L32.5243 49.2386C31.1911 50.2423 29.839 51.2647 28.5433 52.287Z" fill="white"/>
<path d="M388.319 2.34204C388.319 2.8439 387.906 3.25283 387.399 3.25283C385.597 3.25283 383.813 3.25283 382.01 3.29C381.503 3.29 381.108 2.89966 381.09 2.3978C381.09 1.89593 381.484 1.487 381.991 1.487C383.794 1.46842 385.615 1.44983 387.418 1.44983C387.925 1.44983 388.338 1.85876 388.338 2.36062L388.319 2.34204ZM365.71 2.02605C363.907 2.11898 362.105 2.23051 360.283 2.34204C359.776 2.37921 359.401 2.80673 359.438 3.30859C359.476 3.79187 359.87 4.16362 360.34 4.16362C360.358 4.16362 360.377 4.16362 360.396 4.16362C362.199 4.0521 364.001 3.94057 365.785 3.84763C366.292 3.82905 366.668 3.40153 366.649 2.89966C366.63 2.3978 366.198 2.00746 365.691 2.04463L365.71 2.02605ZM376.564 1.59853C374.761 1.65429 372.94 1.71006 371.137 1.78441C370.63 1.80299 370.236 2.23051 370.255 2.71379C370.273 3.19707 370.686 3.58741 371.175 3.58741H371.212C373.015 3.51306 374.818 3.45729 376.62 3.40153C377.127 3.40153 377.522 2.97401 377.503 2.47215C377.503 1.97028 377.071 1.59853 376.564 1.59853ZM354.875 2.71379C353.072 2.8439 351.27 2.9926 349.467 3.15989C348.96 3.19707 348.584 3.64317 348.641 4.14504C348.678 4.60973 349.072 4.96289 349.542 4.96289C349.561 4.96289 349.598 4.96289 349.617 4.96289C351.42 4.7956 353.204 4.66549 355.006 4.51679C355.513 4.47961 355.889 4.0521 355.852 3.55023C355.814 3.04837 355.382 2.67661 354.875 2.71379ZM398.253 1.56135C396.45 1.52418 394.648 1.487 392.826 1.46842C392.357 1.46842 391.906 1.85876 391.906 2.36062C391.906 2.86249 392.3 3.27142 392.807 3.27142C394.61 3.27142 396.413 3.32718 398.197 3.36435H398.216C398.704 3.36435 399.117 2.97401 399.136 2.47215C399.136 1.97028 398.741 1.56135 398.234 1.54277L398.253 1.56135ZM344.059 3.66176C342.256 3.84763 340.453 4.03351 338.669 4.23797C338.162 4.29374 337.805 4.73984 337.862 5.24171C337.918 5.7064 338.312 6.04097 338.763 6.04097C338.801 6.04097 338.838 6.04097 338.876 6.04097C340.679 5.83651 342.462 5.65063 344.246 5.46476C344.753 5.40899 345.11 4.96289 345.054 4.47961C344.998 3.97775 344.566 3.62458 344.059 3.68034V3.66176ZM333.28 4.88854C331.496 5.11159 329.693 5.35323 327.909 5.59487C327.402 5.66922 327.064 6.11532 327.139 6.61719C327.196 7.06329 327.59 7.39787 328.041 7.39787C328.078 7.39787 328.116 7.39787 328.172 7.39787C329.956 7.15623 331.74 6.91459 333.524 6.69154C334.031 6.63578 334.388 6.17109 334.313 5.68781C334.256 5.18594 333.806 4.83278 333.299 4.90713L333.28 4.88854ZM441.5 4.6469C439.716 4.42385 437.913 4.21939 436.111 4.01492C435.622 3.95916 435.153 4.31232 435.097 4.81419C435.04 5.31606 435.397 5.76216 435.904 5.81792C437.707 6.02239 439.491 6.22685 441.275 6.43131C441.312 6.43131 441.35 6.43131 441.387 6.43131C441.838 6.43131 442.232 6.09674 442.289 5.63205C442.345 5.13018 441.988 4.68408 441.5 4.62831V4.6469ZM409.107 1.93311C407.304 1.84017 405.502 1.78441 403.68 1.71006C403.173 1.71006 402.76 2.08181 402.741 2.58367C402.741 3.08554 403.117 3.49447 403.624 3.51306C405.427 3.56882 407.229 3.64317 409.013 3.73611H409.051C409.539 3.73611 409.933 3.36435 409.971 2.88108C409.99 2.37921 409.595 1.9517 409.107 1.93311ZM452.241 6.11532C450.457 5.8551 448.673 5.59487 446.871 5.35323C446.364 5.27888 445.913 5.63205 445.838 6.13391C445.763 6.63578 446.119 7.08188 446.626 7.15623C448.41 7.39787 450.194 7.6581 451.96 7.91832C451.997 7.91832 452.053 7.91832 452.091 7.91832C452.542 7.91832 452.917 7.60233 452.992 7.15623C453.067 6.65437 452.729 6.20826 452.222 6.13391L452.241 6.11532ZM430.721 3.47588C428.918 3.30859 427.134 3.1413 425.332 2.9926C424.862 2.97401 424.393 3.30859 424.336 3.81046C424.299 4.31232 424.674 4.73984 425.163 4.7956C426.965 4.9443 428.749 5.11159 430.533 5.27888C430.571 5.27888 430.59 5.27888 430.627 5.27888C431.097 5.27888 431.491 4.92572 431.529 4.46103C431.585 3.95916 431.209 3.51306 430.702 3.47588H430.721ZM419.924 2.56509C418.121 2.43497 416.318 2.32345 414.515 2.21192H414.459C413.971 2.21192 413.576 2.58367 413.539 3.06695C413.501 3.56882 413.896 3.99633 414.403 4.01492C416.205 4.12645 417.989 4.23797 419.792 4.36809H419.867C420.337 4.36809 420.75 4.01492 420.769 3.53164C420.806 3.02978 420.431 2.60226 419.924 2.56509ZM301.169 10.1674C299.404 10.5206 297.638 10.9109 295.854 11.2827C295.366 11.3942 295.047 11.8775 295.16 12.3608C295.253 12.7883 295.629 13.0671 296.042 13.0671C296.099 13.0671 296.174 13.0671 296.23 13.0485C297.995 12.6582 299.76 12.2864 301.507 11.9333C301.995 11.8403 302.314 11.357 302.22 10.8552C302.108 10.3719 301.638 10.0559 301.131 10.1488L301.169 10.1674ZM322.539 6.37555C320.755 6.65437 318.971 6.93318 317.187 7.23058C316.68 7.30493 316.36 7.76962 316.436 8.27149C316.511 8.71759 316.905 9.03358 317.337 9.03358C317.393 9.03358 317.431 9.03358 317.487 9.03358C319.271 8.73618 321.036 8.45737 322.82 8.19714C323.327 8.12279 323.665 7.6581 323.59 7.17482C323.515 6.67295 323.046 6.33838 322.557 6.41273L322.539 6.37555ZM228.703 32.3611C227.031 33.0488 225.379 33.7737 223.726 34.48C223.257 34.6845 223.05 35.2236 223.257 35.6697C223.407 36.0042 223.745 36.2087 224.102 36.2087C224.233 36.2087 224.346 36.1901 224.478 36.1343C226.13 35.4094 227.783 34.7031 229.435 34.0154C229.905 33.8295 230.111 33.2904 229.923 32.8257C229.736 32.3611 229.191 32.1566 228.721 32.3425L228.703 32.3611ZM259.218 21.1341C257.49 21.6918 255.781 22.2494 254.072 22.8256C253.603 22.9929 253.34 23.4948 253.509 23.978C253.64 24.3498 253.997 24.5914 254.373 24.5914C254.467 24.5914 254.561 24.5914 254.673 24.5357C256.382 23.9594 258.091 23.4018 259.8 22.8628C260.288 22.7141 260.551 22.1936 260.382 21.7289C260.232 21.2457 259.706 20.9854 259.236 21.1527L259.218 21.1341ZM248.946 24.5914C247.237 25.1862 245.547 25.7996 243.838 26.4316C243.369 26.5989 243.125 27.1193 243.294 27.6026C243.425 27.9744 243.782 28.1974 244.157 28.1974C244.27 28.1974 244.364 28.1974 244.477 28.1417C246.167 27.5283 247.857 26.9149 249.547 26.3201C250.016 26.1528 250.279 25.6323 250.11 25.1676C249.941 24.703 249.415 24.4427 248.946 24.61V24.5914ZM604.947 91.9716C605.06 92.3805 605.417 92.6407 605.83 92.6407C605.905 92.6407 605.98 92.6407 606.074 92.6036C606.562 92.4735 606.844 91.9716 606.713 91.4883C606.243 89.7783 605.661 88.031 604.985 86.3395C604.797 85.8748 604.271 85.6518 603.802 85.8191C603.333 86.005 603.107 86.5254 603.276 86.9901C603.933 88.6258 604.478 90.2987 604.947 91.9716ZM218.731 36.6734C217.098 37.4169 215.445 38.179 213.811 38.9411C213.361 39.1641 213.154 39.7032 213.38 40.1493C213.53 40.4653 213.868 40.6697 214.206 40.6697C214.337 40.6697 214.469 40.6326 214.6 40.5768C216.234 39.8147 217.849 39.0526 219.482 38.3091C219.933 38.1046 220.14 37.5656 219.933 37.1195C219.727 36.6734 219.182 36.4689 218.731 36.6734ZM238.73 28.309C237.04 28.9595 235.369 29.6101 233.679 30.2978C233.21 30.4837 232.984 31.0042 233.172 31.4689C233.322 31.822 233.66 32.0265 234.017 32.0265C234.13 32.0265 234.242 32.0079 234.355 31.9521C236.026 31.283 237.698 30.6324 239.369 29.9818C239.838 29.796 240.064 29.2755 239.895 28.8108C239.707 28.3461 239.181 28.1231 238.712 28.2904L238.73 28.309ZM269.546 17.9556C267.818 18.4575 266.072 18.978 264.344 19.4984C263.856 19.6471 263.593 20.149 263.743 20.6323C263.856 21.0226 264.232 21.2642 264.607 21.2642C264.701 21.2642 264.795 21.2642 264.87 21.2271C266.598 20.7066 268.325 20.1862 270.034 19.6843C270.522 19.5356 270.804 19.0337 270.654 18.569C270.504 18.0858 269.997 17.8069 269.527 17.9556H269.546ZM462.907 7.84397C461.142 7.52798 459.358 7.23058 457.555 6.93318C457.067 6.85883 456.579 7.19341 456.504 7.67669C456.429 8.17855 456.767 8.64324 457.255 8.71759C459.039 9.01499 460.804 9.3124 462.569 9.6098C462.626 9.6098 462.682 9.6098 462.738 9.6098C463.17 9.6098 463.565 9.29381 463.64 8.86629C463.734 8.38302 463.396 7.89974 462.907 7.82539V7.84397ZM311.797 8.14138C310.013 8.45737 308.229 8.79194 306.464 9.12652C305.976 9.21946 305.638 9.70274 305.732 10.186C305.807 10.6135 306.201 10.9109 306.633 10.9109C306.69 10.9109 306.746 10.9109 306.802 10.9109C308.567 10.5764 310.351 10.2418 312.117 9.92579C312.605 9.83285 312.943 9.36816 312.849 8.88488C312.755 8.4016 312.286 8.06703 311.797 8.15996V8.14138ZM280.005 15.0931C278.259 15.5393 276.513 16.0225 274.766 16.4872C274.278 16.6173 273.996 17.1192 274.128 17.6025C274.24 18.0114 274.616 18.2716 275.01 18.2716C275.085 18.2716 275.179 18.2716 275.254 18.2345C276.982 17.7512 278.728 17.2865 280.475 16.8404C280.963 16.7103 281.245 16.227 281.132 15.7437C281.001 15.2604 280.512 14.9816 280.024 15.0931H280.005ZM290.54 12.4909C288.775 12.8998 287.029 13.3273 285.263 13.7548C284.775 13.885 284.475 14.3682 284.606 14.8515C284.719 15.2604 285.076 15.5393 285.489 15.5393C285.564 15.5393 285.639 15.5393 285.714 15.5207C287.46 15.0932 289.207 14.6656 290.972 14.2567C291.46 14.1452 291.761 13.6619 291.648 13.1786C291.535 12.6953 291.047 12.3794 290.559 12.5095L290.54 12.4909ZM606.018 97.0646C606.281 98.7933 606.45 100.54 606.506 102.269C606.506 102.752 606.919 103.143 607.426 103.143H607.464C607.971 103.143 608.365 102.715 608.346 102.213C608.29 100.41 608.121 98.5888 607.839 96.7858C607.764 96.2839 607.295 95.9493 606.807 96.0237C606.3 96.098 605.961 96.5627 606.037 97.046L606.018 97.0646ZM577.888 52.9747C577.493 52.6587 576.911 52.7331 576.611 53.1234C576.292 53.5138 576.367 54.09 576.761 54.3874C578.188 55.5027 579.559 56.6365 580.892 57.7703C581.061 57.919 581.287 57.9934 581.493 57.9934C581.756 57.9934 582 57.8819 582.188 57.6774C582.526 57.3057 582.47 56.7294 582.094 56.3949C580.742 55.2424 579.334 54.09 577.888 52.9562V52.9747ZM586.864 144.036C585.624 145.262 584.329 146.489 582.995 147.697C582.62 148.032 582.601 148.608 582.939 148.98C583.127 149.184 583.371 149.277 583.615 149.277C583.84 149.277 584.047 149.203 584.235 149.036C585.587 147.809 586.92 146.563 588.178 145.299C588.535 144.946 588.535 144.37 588.178 144.017C587.821 143.664 587.239 143.664 586.883 144.017L586.864 144.036ZM586.113 60.038C585.756 59.6849 585.174 59.7035 584.817 60.0752C584.479 60.4284 584.479 61.0046 584.855 61.3578C586.169 62.5845 587.446 63.8485 588.629 65.1125C588.817 65.2983 589.042 65.3913 589.286 65.3913C589.512 65.3913 589.737 65.3169 589.906 65.1496C590.282 64.8151 590.281 64.2388 589.943 63.8671C588.723 62.5845 587.427 61.302 586.094 60.038H586.113ZM569.099 46.6178C568.686 46.339 568.123 46.4505 567.841 46.8594C567.56 47.2683 567.672 47.826 568.085 48.1234C569.588 49.1271 571.052 50.1494 572.48 51.1903C572.649 51.3019 572.836 51.3576 573.024 51.3576C573.306 51.3576 573.587 51.2275 573.756 50.9859C574.057 50.5769 573.963 50.0193 573.55 49.7219C572.104 48.681 570.62 47.6401 569.099 46.6364V46.6178ZM578.939 151.192C577.587 152.307 576.198 153.404 574.752 154.519C574.357 154.816 574.282 155.393 574.583 155.783C574.77 156.006 575.033 156.136 575.296 156.136C575.484 156.136 575.691 156.08 575.86 155.95C577.324 154.835 578.733 153.701 580.104 152.586C580.498 152.27 580.535 151.694 580.216 151.303C579.897 150.913 579.315 150.876 578.939 151.192ZM593.962 136.117C592.892 137.474 591.746 138.831 590.526 140.169C590.188 140.541 590.225 141.117 590.601 141.452C590.77 141.601 590.995 141.675 591.202 141.675C591.446 141.675 591.709 141.563 591.878 141.378C593.117 140.002 594.281 138.608 595.389 137.232C595.708 136.842 595.633 136.266 595.239 135.969C594.845 135.671 594.263 135.727 593.962 136.117ZM607.351 106.693C606.863 106.656 606.412 107.009 606.356 107.511C606.206 109.239 605.943 110.987 605.586 112.697C605.492 113.18 605.792 113.663 606.299 113.775C606.356 113.775 606.431 113.793 606.487 113.793C606.9 113.793 607.295 113.496 607.389 113.069C607.764 111.284 608.027 109.481 608.196 107.678C608.234 107.176 607.877 106.749 607.37 106.693H607.351ZM473.555 9.87002C471.79 9.51686 470.024 9.1637 468.24 8.82912C467.752 8.73618 467.264 9.05217 467.17 9.55404C467.076 10.0373 467.395 10.5206 467.902 10.6135C469.686 10.9481 471.433 11.3013 473.198 11.6544C473.254 11.6544 473.329 11.6544 473.386 11.6544C473.818 11.6544 474.193 11.357 474.287 10.9295C474.381 10.4462 474.062 9.96296 473.574 9.87002H473.555ZM570.451 157.697C569.024 158.72 567.56 159.723 566.039 160.727C565.625 161.006 565.513 161.564 565.794 161.973C565.963 162.233 566.264 162.382 566.546 162.382C566.715 162.382 566.902 162.326 567.053 162.233C568.592 161.211 570.076 160.188 571.522 159.166C571.935 158.868 572.029 158.311 571.728 157.902C571.428 157.493 570.865 157.4 570.451 157.697ZM596.967 72.1572C595.915 70.7259 594.788 69.2947 593.605 67.9006C593.286 67.5103 592.704 67.4731 592.31 67.7891C591.915 68.1051 591.878 68.6813 592.197 69.0716C593.361 70.4471 594.469 71.8412 595.483 73.2353C595.652 73.4769 595.934 73.607 596.215 73.607C596.403 73.607 596.591 73.5512 596.76 73.4397C597.173 73.1423 597.248 72.5847 596.967 72.1758V72.1572ZM601.154 127.009C600.722 126.768 600.159 126.916 599.915 127.362C599.07 128.868 598.131 130.374 597.117 131.861C596.835 132.27 596.948 132.827 597.361 133.106C597.511 133.218 597.699 133.255 597.868 133.255C598.168 133.255 598.45 133.106 598.619 132.864C599.652 131.34 600.628 129.797 601.492 128.255C601.736 127.827 601.586 127.269 601.135 127.028L601.154 127.009ZM602.713 81.3766C601.905 79.7967 601.004 78.2167 600.027 76.6554C599.765 76.2279 599.201 76.0978 598.769 76.358C598.337 76.6182 598.206 77.1758 598.469 77.6033C599.427 79.1275 600.29 80.6703 601.079 82.1945C601.229 82.5105 601.567 82.6964 601.887 82.6964C602.018 82.6964 602.168 82.6592 602.3 82.6034C602.75 82.3804 602.938 81.8413 602.694 81.3952L602.713 81.3766ZM605.379 117.176C604.891 117.028 604.384 117.288 604.234 117.753C603.689 119.388 603.051 121.024 602.318 122.66C602.112 123.124 602.318 123.645 602.788 123.849C602.901 123.905 603.032 123.924 603.163 123.924C603.52 123.924 603.84 123.719 603.99 123.385C604.741 121.712 605.417 120.002 605.98 118.31C606.13 117.827 605.886 117.325 605.398 117.176H605.379ZM535.674 28.8108C534.021 28.1045 532.35 27.4167 530.679 26.729C530.209 26.5431 529.683 26.7662 529.496 27.2309C529.308 27.6956 529.533 28.216 530.003 28.4019C531.674 29.071 533.345 29.7588 534.979 30.4651C535.092 30.5209 535.223 30.5395 535.336 30.5395C535.693 30.5395 536.031 30.335 536.181 30.0004C536.387 29.5357 536.181 29.0153 535.711 28.8108H535.674ZM515.431 21.097C513.722 20.5207 512.013 19.9631 510.285 19.4055C509.816 19.2568 509.29 19.517 509.14 19.9817C508.99 20.465 509.253 20.9668 509.722 21.1155C511.45 21.6732 513.158 22.2308 514.849 22.807C514.942 22.8442 515.055 22.8628 515.149 22.8628C515.525 22.8628 515.881 22.6211 516.013 22.2494C516.182 21.7847 515.919 21.2642 515.449 21.097H515.431ZM525.627 24.7587C523.956 24.1267 522.266 23.4948 520.538 22.8814C520.069 22.7141 519.543 22.9557 519.374 23.4204C519.205 23.8851 519.449 24.4056 519.919 24.5728C521.627 25.1862 523.299 25.7996 524.97 26.4502C525.083 26.4874 525.195 26.506 525.289 26.506C525.665 26.506 526.003 26.2829 526.134 25.9297C526.322 25.465 526.078 24.9446 525.609 24.7587H525.627ZM505.102 17.7884C503.375 17.2679 501.647 16.766 499.901 16.2642C499.413 16.1341 498.906 16.4129 498.774 16.8776C498.643 17.3608 498.924 17.8627 499.394 17.9928C501.14 18.4947 502.849 18.9966 504.558 19.4984C504.652 19.517 504.727 19.5356 504.821 19.5356C505.215 19.5356 505.572 19.294 505.703 18.9036C505.854 18.4203 505.572 17.9185 505.102 17.7698V17.7884ZM494.68 14.8329C492.953 14.3682 491.188 13.9221 489.441 13.476C488.953 13.3645 488.446 13.6433 488.333 14.1266C488.202 14.6099 488.502 15.0931 488.991 15.2233C490.737 15.6694 492.483 16.1155 494.211 16.5802C494.286 16.5987 494.361 16.6173 494.455 16.6173C494.849 16.6173 495.225 16.3571 495.338 15.9482C495.469 15.4649 495.187 14.963 494.699 14.8329H494.68ZM484.165 12.1935C482.418 11.7846 480.653 11.3756 478.869 10.9853C478.381 10.8738 477.893 11.1897 477.78 11.673C477.667 12.1563 477.986 12.6396 478.475 12.7511C480.24 13.1414 481.986 13.5318 483.733 13.9407C483.808 13.9407 483.883 13.9593 483.939 13.9593C484.352 13.9593 484.728 13.6805 484.822 13.2716C484.934 12.7883 484.634 12.305 484.146 12.1749L484.165 12.1935ZM552.293 169.092C550.753 169.947 549.175 170.802 547.579 171.657C547.129 171.898 546.96 172.437 547.204 172.884C547.373 173.181 547.692 173.367 548.011 173.367C548.161 173.367 548.312 173.33 548.443 173.255C550.058 172.4 551.654 171.527 553.194 170.672C553.626 170.43 553.795 169.872 553.532 169.445C553.288 169.017 552.725 168.85 552.293 169.092ZM542.791 174.129C541.213 174.928 539.598 175.709 537.965 176.508C537.514 176.731 537.326 177.27 537.552 177.716C537.702 178.032 538.04 178.218 538.378 178.218C538.509 178.218 538.641 178.181 538.772 178.125C540.425 177.326 542.04 176.527 543.617 175.727C544.068 175.504 544.237 174.965 544.011 174.519C543.786 174.073 543.223 173.906 542.791 174.129ZM561.532 163.645C560.048 164.575 558.508 165.504 556.95 166.434C556.518 166.694 556.368 167.251 556.631 167.679C556.8 167.958 557.1 168.125 557.419 168.125C557.569 168.125 557.738 168.088 557.889 167.995C559.466 167.066 561.006 166.118 562.508 165.188C562.94 164.928 563.053 164.37 562.79 163.943C562.527 163.515 561.964 163.385 561.532 163.664V163.645ZM555.203 38.2347C553.626 37.3797 552.03 36.5247 550.415 35.7068C549.964 35.4838 549.42 35.6511 549.175 36.0972C548.95 36.5433 549.119 37.0823 549.57 37.324C551.185 38.1418 552.762 38.9783 554.321 39.8333C554.471 39.9076 554.621 39.9448 554.771 39.9448C555.091 39.9448 555.41 39.7775 555.579 39.4801C555.823 39.034 555.654 38.495 555.222 38.2533L555.203 38.2347ZM564.574 43.6995C563.053 42.7515 561.513 41.8222 559.936 40.9114C559.504 40.6697 558.94 40.7998 558.696 41.2274C558.433 41.6549 558.583 42.2125 559.015 42.4727C560.574 43.3835 562.114 44.3129 563.616 45.2423C563.766 45.3352 563.935 45.3724 564.104 45.3724C564.405 45.3724 564.705 45.2237 564.874 44.9449C565.137 44.5174 565.024 43.9597 564.593 43.6995H564.574ZM545.57 33.2904C543.955 32.5098 542.321 31.7477 540.65 31.0042C540.199 30.7997 539.655 31.0042 539.448 31.4503C539.242 31.8964 539.448 32.4354 539.899 32.6585C541.551 33.402 543.166 34.1641 544.763 34.9447C544.894 35.0005 545.025 35.0377 545.157 35.0377C545.495 35.0377 545.814 34.8518 545.983 34.5358C546.208 34.0897 546.021 33.5507 545.57 33.3276V33.2904Z" fill="#FF5722"/>
<path d="M41.0506 264.948C40.9003 265.283 40.5623 265.468 40.2243 265.468C40.0929 265.468 39.9614 265.45 39.8488 265.394C38.1775 264.632 36.5438 263.833 34.9476 262.996C34.4969 262.755 34.3279 262.216 34.572 261.77C34.8161 261.323 35.3607 261.156 35.8114 261.398C37.3512 262.216 38.9662 263.015 40.5999 263.758C41.0506 263.963 41.2571 264.502 41.0506 264.948ZM37.8582 124.426C38.1775 124.035 38.1024 123.459 37.708 123.162C37.3137 122.846 36.7315 122.92 36.4311 123.31C35.2856 124.723 34.1777 126.136 33.1073 127.548C32.8068 127.939 32.882 128.515 33.2763 128.812C33.4453 128.942 33.6331 128.998 33.8209 128.998C34.1026 128.998 34.3655 128.868 34.5532 128.645C35.6236 127.251 36.7315 125.838 37.8582 124.444V124.426ZM31.1919 258.74C29.6708 257.792 28.1873 256.788 26.779 255.766C26.3658 255.468 25.8025 255.561 25.502 255.952C25.2016 256.361 25.2955 256.918 25.6898 257.216C27.1358 258.275 28.6568 259.297 30.2154 260.264C30.3656 260.357 30.5347 260.394 30.7037 260.394C31.0041 260.394 31.3046 260.245 31.4736 259.967C31.7365 259.539 31.6238 258.981 31.1919 258.721V258.74ZM24.9387 140.429C24.5256 140.151 23.9434 140.281 23.6805 140.69C22.6665 142.214 21.69 143.719 20.7511 145.225C20.4882 145.653 20.6196 146.21 21.0515 146.47C21.2018 146.563 21.3708 146.601 21.5398 146.601C21.8402 146.601 22.1407 146.452 22.3097 146.173C23.2486 144.686 24.2063 143.18 25.2016 141.675C25.4833 141.266 25.3706 140.69 24.9387 140.429ZM18.7606 248.851C18.4038 248.498 17.8217 248.479 17.4649 248.851C17.1081 249.204 17.0893 249.781 17.4649 250.134C18.723 251.416 20.0563 252.662 21.4459 253.851C21.6149 254 21.8402 254.074 22.0468 254.074C22.3097 254.074 22.5538 253.963 22.7416 253.758C23.0796 253.387 23.0233 252.81 22.6477 252.476C21.2957 251.323 19.9999 250.096 18.7794 248.851H18.7606ZM50.5525 106.99C49.3131 108.329 48.1113 109.648 46.9094 110.968C46.5714 111.34 46.609 111.916 46.9846 112.251C47.1536 112.399 47.3789 112.474 47.5855 112.474C47.8296 112.474 48.0925 112.362 48.2615 112.176C49.4445 110.857 50.6464 109.537 51.867 108.217C52.205 107.845 52.1862 107.269 51.8106 106.935C51.435 106.6 50.8529 106.619 50.5149 106.99H50.5525ZM60.9369 270.301C59.1718 269.929 57.4254 269.502 55.7165 269.056C55.2283 268.907 54.7213 269.223 54.5898 269.688C54.4584 270.171 54.7588 270.673 55.2471 270.785C56.9747 271.249 58.7586 271.658 60.5426 272.048C60.5989 272.048 60.674 272.067 60.7304 272.067C61.1435 272.067 61.5378 271.77 61.6317 271.361C61.7444 270.877 61.4252 270.394 60.9369 270.283V270.301ZM44.6373 114.927C44.2617 114.611 43.6796 114.648 43.3415 115.02C42.1585 116.396 40.9942 117.771 39.8488 119.128C39.5295 119.518 39.5859 120.076 39.9614 120.411C40.1304 120.541 40.337 120.615 40.5436 120.615C40.8065 120.615 41.0694 120.504 41.2571 120.28C42.3838 118.924 43.5481 117.567 44.7311 116.191C45.0504 115.819 45.0128 115.243 44.6373 114.909V114.927ZM66.9648 91.637C66.608 91.2838 66.0259 91.2652 65.6691 91.6184C64.3546 92.8823 63.0777 94.1277 61.8007 95.3731C61.444 95.7262 61.444 96.3025 61.8007 96.6556C61.9697 96.8415 62.2139 96.9158 62.4392 96.9158C62.6645 96.9158 62.9087 96.8229 63.0777 96.6556C64.3358 95.4103 65.6128 94.1649 66.9273 92.9195C67.284 92.5663 67.3028 91.9901 66.946 91.637H66.9648ZM50.59 267.569C48.8624 267.011 47.1723 266.416 45.5386 265.803C45.0692 265.617 44.5434 265.859 44.3556 266.323C44.1678 266.788 44.4119 267.309 44.8814 267.495C46.5339 268.126 48.2615 268.74 50.0267 269.298C50.1206 269.335 50.2145 269.335 50.3083 269.335C50.7027 269.335 51.0595 269.093 51.1721 268.703C51.3224 268.219 51.0595 267.718 50.59 267.569ZM55.5851 104.314C56.8057 103.031 58.0451 101.749 59.322 100.466C59.6788 100.113 59.66 99.5367 59.322 99.1835C58.9652 98.8304 58.3831 98.849 58.0263 99.1835C56.7493 100.485 55.4912 101.767 54.2706 103.05C53.9326 103.422 53.9326 103.979 54.3081 104.332C54.4772 104.5 54.7025 104.574 54.9278 104.574C55.172 104.574 55.4161 104.481 55.5851 104.295V104.314ZM0.977394 206.657C1.48441 206.657 1.87876 206.267 1.89754 205.765C1.89754 204.018 1.99143 202.252 2.12288 200.486C2.16044 199.984 1.78487 199.557 1.27785 199.52C0.78961 199.501 0.338927 199.854 0.301371 200.356C0.151143 202.159 0.0760294 203.981 0.057251 205.765C0.057251 206.267 0.451598 206.676 0.958616 206.676L0.977394 206.657ZM2.61112 216.286C2.34822 214.576 2.16044 212.81 2.04777 211.044C2.01021 210.542 1.5783 210.17 1.07129 210.207C0.564269 210.245 0.1887 210.672 0.226257 211.174C0.338927 212.977 0.54549 214.799 0.808388 216.564C0.883502 217.011 1.25907 217.345 1.70975 217.345C1.74731 217.345 1.80365 217.345 1.8412 217.345C2.34822 217.271 2.68623 216.806 2.61112 216.323V216.286ZM1.69097 195.988C1.69097 195.988 1.78487 195.988 1.82242 195.988C2.27311 195.988 2.66745 195.653 2.72379 195.207C2.96791 193.497 3.26836 191.731 3.62515 189.984C3.71905 189.501 3.39981 189.018 2.91157 188.925C2.42333 188.832 1.93509 189.148 1.8412 189.631C1.48441 191.415 1.16518 193.2 0.921059 194.947C0.845945 195.449 1.20274 195.895 1.69097 195.969V195.988ZM3.71905 185.486C3.71905 185.486 3.86927 185.523 3.94439 185.523C4.35751 185.523 4.7143 185.244 4.82697 184.854C5.25888 183.181 5.76589 181.452 6.31047 179.761C6.4607 179.278 6.1978 178.776 5.70956 178.627C5.22132 178.478 4.7143 178.739 4.56408 179.222C4.0195 180.951 3.51248 182.698 3.0618 184.408C2.93035 184.891 3.23081 185.393 3.71905 185.504V185.486ZM27.4738 137.641C27.7554 137.641 28.0559 137.511 28.2249 137.251C29.2389 135.82 30.2718 134.37 31.3421 132.901C31.6426 132.493 31.5487 131.935 31.1356 131.638C30.7224 131.34 30.1591 131.433 29.8586 131.842C28.7695 133.31 27.7367 134.76 26.7226 136.229C26.441 136.638 26.5348 137.195 26.948 137.493C27.0982 137.604 27.286 137.66 27.4738 137.66V137.641ZM12.0567 240.691C11.775 240.282 11.2116 240.171 10.7797 240.45C10.3666 240.728 10.2539 241.286 10.5356 241.713C11.5497 243.2 12.6576 244.669 13.8031 246.063C13.9909 246.286 14.2537 246.398 14.5166 246.398C14.7232 246.398 14.9298 246.323 15.0988 246.193C15.4931 245.877 15.5495 245.301 15.2302 244.929C14.1035 243.572 13.0331 242.141 12.0567 240.71V240.691ZM10.9112 165.337C11.0426 165.393 11.1553 165.411 11.2868 165.411C11.6435 165.411 11.9628 165.207 12.113 164.891C12.8454 163.311 13.6153 161.712 14.4228 160.095C14.6481 159.649 14.4603 159.11 14.0096 158.887C13.5589 158.664 13.0144 158.85 12.789 159.296C11.9628 160.932 11.1741 162.549 10.4417 164.147C10.2352 164.593 10.4417 165.132 10.8924 165.337H10.9112ZM3.62515 221.472C3.51248 220.988 3.02424 220.672 2.536 220.802C2.04777 220.914 1.74731 221.397 1.85998 221.88C2.27311 223.646 2.78012 225.412 3.34348 227.104C3.47493 227.475 3.83172 227.717 4.20729 227.717C4.30118 227.717 4.39507 227.717 4.48896 227.68C4.95842 227.531 5.22132 227.011 5.07109 226.546C4.52652 224.892 4.03828 223.182 3.62515 221.472ZM9.48403 168.59C9.01457 168.404 8.48877 168.627 8.30098 169.073C7.60618 170.764 6.94894 172.437 6.32925 174.092C6.16024 174.556 6.40436 175.077 6.87382 175.244C6.96771 175.281 7.08039 175.3 7.19306 175.3C7.56862 175.3 7.92542 175.077 8.05686 174.705C8.65777 173.069 9.29624 171.415 9.99104 169.742C10.1788 169.277 9.95349 168.757 9.5028 168.571L9.48403 168.59ZM6.94894 231.472C6.74237 231.007 6.21658 230.803 5.74712 231.007C5.27766 231.211 5.07109 231.732 5.27766 232.197C6.01002 233.851 6.81749 235.487 7.70007 237.085C7.86908 237.383 8.16953 237.55 8.50755 237.55C8.65777 237.55 8.808 237.513 8.93945 237.438C9.39013 237.197 9.54036 236.658 9.29624 236.212C8.45121 234.669 7.66252 233.089 6.94894 231.49V231.472ZM19.23 149.5C18.7981 149.24 18.2348 149.389 17.9719 149.835C17.0517 151.415 16.1691 152.976 15.3053 154.519C15.0612 154.965 15.2302 155.504 15.6809 155.746C15.8124 155.82 15.9626 155.857 16.1128 155.857C16.432 155.857 16.7513 155.69 16.9203 155.393C17.7653 153.85 18.6479 152.307 19.5493 150.746C19.8122 150.318 19.6619 149.76 19.2113 149.519L19.23 149.5ZM195.222 242.754C193.644 243.628 192.067 244.464 190.489 245.301C190.039 245.543 189.87 246.082 190.114 246.528C190.283 246.825 190.602 247.011 190.921 247.011C191.071 247.011 191.222 246.974 191.353 246.899C192.931 246.063 194.527 245.208 196.123 244.334C196.555 244.093 196.724 243.535 196.48 243.108C196.236 242.68 195.672 242.513 195.24 242.754H195.222ZM175.992 252.401C174.34 253.145 172.706 253.87 171.072 254.576C170.603 254.781 170.396 255.301 170.603 255.766C170.753 256.1 171.091 256.305 171.448 256.305C171.561 256.305 171.692 256.286 171.805 256.23C173.457 255.524 175.11 254.781 176.762 254.037C177.213 253.833 177.42 253.294 177.213 252.847C177.006 252.401 176.462 252.197 176.011 252.401H175.992ZM185.701 247.754C184.086 248.572 182.471 249.353 180.875 250.115C180.424 250.338 180.236 250.877 180.443 251.323C180.593 251.639 180.931 251.825 181.269 251.825C181.401 251.825 181.532 251.788 181.663 251.732C183.278 250.952 184.893 250.171 186.527 249.353C186.978 249.13 187.147 248.591 186.921 248.145C186.696 247.699 186.152 247.513 185.701 247.754ZM145.853 263.907C144.125 264.446 142.398 264.948 140.689 265.431C140.201 265.561 139.919 266.063 140.069 266.547C140.182 266.937 140.557 267.197 140.952 267.197C141.027 267.197 141.121 267.197 141.196 267.16C142.924 266.677 144.651 266.156 146.398 265.617C146.886 265.468 147.149 264.967 146.999 264.483C146.848 264 146.341 263.74 145.853 263.889V263.907ZM166.115 256.658C164.444 257.346 162.772 257.996 161.101 258.628C160.632 258.814 160.388 259.335 160.575 259.799C160.707 260.152 161.064 260.375 161.42 260.375C161.533 260.375 161.646 260.357 161.758 260.32C163.43 259.688 165.12 259.019 166.791 258.331C167.26 258.145 167.486 257.606 167.279 257.16C167.091 256.695 166.547 256.472 166.096 256.677L166.115 256.658ZM156.068 260.506C154.36 261.119 152.67 261.695 150.98 262.271C150.51 262.439 150.247 262.941 150.397 263.424C150.529 263.796 150.886 264.037 151.261 264.037C151.355 264.037 151.449 264.037 151.562 263.981C153.271 263.405 154.979 262.829 156.688 262.216C157.158 262.048 157.402 261.528 157.233 261.063C157.064 260.598 156.538 260.357 156.068 260.524V260.506ZM204.554 237.401C202.996 238.331 201.456 239.223 199.916 240.115C199.484 240.357 199.334 240.914 199.578 241.342C199.747 241.639 200.048 241.788 200.367 241.788C200.517 241.788 200.686 241.751 200.818 241.658C202.376 240.765 203.935 239.855 205.493 238.925C205.925 238.665 206.057 238.107 205.813 237.68C205.55 237.252 204.986 237.122 204.554 237.364V237.401ZM222.619 225.747C221.136 226.769 219.652 227.773 218.169 228.776C217.756 229.055 217.643 229.613 217.925 230.04C218.094 230.301 218.394 230.431 218.676 230.431C218.845 230.431 219.033 230.375 219.183 230.282C220.666 229.278 222.169 228.275 223.652 227.234C224.065 226.955 224.159 226.379 223.877 225.97C223.596 225.561 223.014 225.468 222.6 225.747H222.619ZM232.628 219.669C232.328 219.278 231.746 219.185 231.351 219.483C229.905 220.561 228.459 221.602 227.013 222.643C226.6 222.94 226.506 223.498 226.807 223.907C226.995 224.148 227.258 224.278 227.539 224.278C227.727 224.278 227.915 224.223 228.084 224.111C229.53 223.07 230.994 222.011 232.44 220.933C232.835 220.635 232.929 220.059 232.628 219.669ZM213.681 231.732C212.16 232.717 210.657 233.665 209.136 234.613C208.704 234.873 208.573 235.431 208.855 235.858C209.024 236.137 209.324 236.286 209.625 236.286C209.794 236.286 209.963 236.249 210.113 236.156C211.634 235.208 213.155 234.241 214.676 233.256C215.108 232.977 215.221 232.42 214.939 232.011C214.657 231.602 214.094 231.472 213.681 231.751V231.732ZM82.2505 272.959C80.4477 272.885 78.6638 272.773 76.8798 272.625C76.354 272.55 75.9409 272.959 75.9034 273.443C75.8658 273.944 76.2414 274.372 76.7296 274.409C78.5135 274.558 80.3351 274.669 82.1566 274.744H82.1941C82.6824 274.744 83.0767 274.372 83.1143 273.889C83.133 273.387 82.7387 272.959 82.2505 272.941V272.959ZM91.0012 71.4508C91.3956 71.1348 91.4331 70.5586 91.1139 70.1683C90.7946 69.7965 90.2125 69.7407 89.8182 70.0567C88.4286 71.2277 87.0577 72.3802 85.7057 73.5326C85.3301 73.8672 85.2738 74.4248 85.6118 74.8152C85.7996 75.0196 86.0437 75.1311 86.3066 75.1311C86.5132 75.1311 86.7385 75.0568 86.9075 74.9081C88.2596 73.7557 89.6304 72.6032 91.02 71.4322L91.0012 71.4508ZM81.612 77.0643C80.2412 78.2539 78.8891 79.4435 77.5746 80.6331C77.1991 80.9677 77.1615 81.5439 77.4995 81.9156C77.6873 82.1201 77.9314 82.213 78.1755 82.213C78.4009 82.213 78.6074 82.1387 78.7952 81.99C80.1097 80.8004 81.4618 79.6294 82.8326 78.4397C83.2082 78.1052 83.2457 77.5475 82.9077 77.1572C82.5697 76.7854 81.9876 76.7483 81.612 77.0829V77.0643ZM135.487 266.825C133.741 267.271 131.995 267.699 130.267 268.108C129.779 268.219 129.478 268.703 129.591 269.186C129.685 269.595 130.06 269.892 130.473 269.892C130.549 269.892 130.605 269.892 130.68 269.874C132.426 269.465 134.192 269.037 135.957 268.591C136.445 268.461 136.745 267.978 136.614 267.495C136.483 267.011 135.976 266.714 135.506 266.844L135.487 266.825ZM92.9917 273.034C91.6021 273.071 90.2313 273.089 88.8792 273.089H87.6211C87.1516 273.015 86.701 273.48 86.701 273.982C86.701 274.483 87.0953 274.892 87.6023 274.892H88.8792C90.2501 274.892 91.6397 274.892 93.0481 274.837C93.5551 274.837 93.9494 274.409 93.9306 273.907C93.9306 273.405 93.5175 273.034 92.9917 273.034ZM71.5468 272.067C69.744 271.844 67.9788 271.584 66.2325 271.305C65.7442 271.231 65.256 271.547 65.1809 272.048C65.087 272.55 65.425 273.015 65.932 273.089C67.6972 273.387 69.4999 273.647 71.3214 273.87C71.359 273.87 71.3965 273.87 71.4341 273.87C71.8848 273.87 72.2791 273.536 72.3354 273.071C72.3918 272.569 72.035 272.123 71.5468 272.067ZM73.5748 84.2391C72.2416 85.4659 70.9083 86.6927 69.6126 87.9009C69.2558 88.254 69.237 88.8116 69.575 89.1834C69.7628 89.3693 69.9881 89.4622 70.2323 89.4622C70.4576 89.4622 70.6829 89.3879 70.8519 89.2206C72.1477 88.0124 73.4622 86.7856 74.7954 85.5774C75.171 85.2428 75.1898 84.6666 74.8518 84.2948C74.5137 83.9231 73.9316 83.9045 73.556 84.2391H73.5748ZM114.418 271.119C112.634 271.379 110.85 271.621 109.085 271.844C108.578 271.9 108.221 272.346 108.296 272.848C108.352 273.312 108.747 273.647 109.198 273.647C109.235 273.647 109.273 273.647 109.31 273.647C111.094 273.443 112.878 273.201 114.7 272.922C115.207 272.848 115.545 272.383 115.47 271.9C115.394 271.398 114.944 271.063 114.437 271.138L114.418 271.119ZM125.009 269.242C123.244 269.595 121.479 269.948 119.713 270.245C119.225 270.338 118.887 270.803 118.981 271.286C119.056 271.732 119.451 272.03 119.882 272.03C119.939 272.03 119.995 272.03 120.051 272.03C121.817 271.714 123.601 271.379 125.385 271.008C125.873 270.915 126.192 270.431 126.098 269.929C126.004 269.446 125.516 269.13 125.028 269.223L125.009 269.242ZM99.4515 63.3466C99.1323 62.9563 98.5501 62.9005 98.1746 63.2165C96.7662 64.3503 95.3578 65.4842 93.987 66.618C93.5926 66.934 93.5363 67.5102 93.8743 67.9006C94.0621 68.1236 94.325 68.2351 94.5879 68.2351C94.7945 68.2351 95.001 68.1608 95.17 68.0307C96.5408 66.8968 97.9305 65.7816 99.3388 64.6477C99.7332 64.3317 99.7895 63.7555 99.4703 63.3838L99.4515 63.3466ZM103.714 272.402C101.911 272.569 100.128 272.699 98.3436 272.792C97.8366 272.829 97.461 273.257 97.4798 273.74C97.5173 274.223 97.9117 274.595 98.3811 274.595H98.4375C100.221 274.483 102.043 274.353 103.864 274.186C104.371 274.149 104.728 273.703 104.691 273.201C104.653 272.699 104.202 272.364 103.695 272.383L103.714 272.402Z" fill="#FF5722"/>
<path d="M684.605 43.7367C683.141 42.7329 681.657 41.7292 680.155 40.7441C679.742 40.4652 679.61 39.9076 679.892 39.4987C680.174 39.0898 680.737 38.9596 681.15 39.2385C682.671 40.2236 684.173 41.2273 685.638 42.2496C686.051 42.5285 686.164 43.1047 685.863 43.5136C685.694 43.7738 685.394 43.9039 685.112 43.9039C684.924 43.9039 684.755 43.8482 684.586 43.7367H684.605ZM676.606 36.3202C675.085 35.3722 673.545 34.4243 671.986 33.4949C671.554 33.2346 670.991 33.3648 670.728 33.8109C670.465 34.2384 670.615 34.796 671.047 35.0562C672.587 35.9856 674.127 36.915 675.629 37.863C675.779 37.9559 675.948 38.0117 676.117 38.0117C676.418 38.0117 676.718 37.863 676.887 37.5842C677.15 37.1566 677.038 36.599 676.606 36.3388V36.3202ZM710.519 63.8671C710.764 63.8671 711.008 63.7741 711.196 63.5697C711.534 63.1979 711.515 62.6217 711.139 62.2871C709.806 61.0975 708.454 59.9079 707.083 58.7183C706.707 58.3837 706.125 58.4395 705.787 58.8112C705.449 59.183 705.506 59.7592 705.881 60.0938C707.252 61.2648 708.585 62.4544 709.9 63.644C710.069 63.8113 710.294 63.8856 710.519 63.8856V63.8671ZM703.515 227.661C702.032 226.732 700.529 225.765 699.008 224.762C698.595 224.483 698.032 224.594 697.731 225.003C697.45 225.412 697.562 225.97 697.975 226.267C699.515 227.289 701.036 228.275 702.52 229.204C702.67 229.297 702.839 229.334 703.008 229.334C703.309 229.334 703.609 229.185 703.778 228.907C704.041 228.479 703.909 227.921 703.496 227.661H703.515ZM667.31 30.7997C665.752 29.9075 664.174 29.0338 662.578 28.1788C662.127 27.9372 661.583 28.1045 661.339 28.532C661.095 28.9781 661.264 29.5171 661.696 29.7588C663.273 30.6138 664.85 31.4874 666.39 32.361C666.54 32.4354 666.691 32.4726 666.841 32.4726C667.16 32.4726 667.461 32.3053 667.63 32.0265C667.874 31.5989 667.723 31.0413 667.292 30.7997H667.31ZM702.351 56.8595C702.614 56.8595 702.877 56.748 703.046 56.5249C703.365 56.1346 703.309 55.577 702.933 55.261C701.543 54.1271 700.154 52.9933 698.727 51.878C698.332 51.5806 697.75 51.6364 697.45 52.0267C697.13 52.4171 697.206 52.9933 697.6 53.2907C699.008 54.406 700.398 55.5212 701.787 56.6551C701.957 56.8038 702.163 56.8595 702.37 56.8595H702.351ZM690.276 218.535C689.882 218.237 689.3 218.312 688.999 218.702C688.699 219.092 688.774 219.669 689.168 219.966C690.633 221.081 692.098 222.141 693.525 223.163C693.694 223.275 693.882 223.33 694.051 223.33C694.332 223.33 694.614 223.2 694.783 222.959C695.084 222.55 694.99 221.992 694.577 221.695C693.149 220.672 691.704 219.613 690.258 218.516L690.276 218.535ZM693.318 50.0193C693.487 50.1494 693.675 50.2052 693.863 50.2052C694.145 50.2052 694.408 50.075 694.595 49.852C694.896 49.4616 694.821 48.8854 694.426 48.588C692.999 47.5099 691.534 46.4505 690.07 45.391C689.675 45.0936 689.093 45.1865 688.793 45.5954C688.492 46.0044 688.586 46.562 688.999 46.8594C690.464 47.9003 691.91 48.9598 693.318 50.0379V50.0193ZM681.864 211.862C681.469 211.546 680.906 211.583 680.568 211.973C680.249 212.364 680.286 212.921 680.681 213.256C682.089 214.427 683.497 215.561 684.868 216.657C685.037 216.787 685.244 216.862 685.431 216.862C685.694 216.862 685.957 216.75 686.145 216.527C686.464 216.137 686.389 215.561 685.995 215.263C684.624 214.167 683.234 213.051 681.826 211.88L681.864 211.862ZM774.441 166.229C774.873 167.976 775.268 169.705 775.624 171.415C775.718 171.843 776.094 172.14 776.526 172.14C776.582 172.14 776.657 172.14 776.713 172.14C777.202 172.047 777.521 171.564 777.427 171.081C777.07 169.352 776.676 167.586 776.244 165.82C776.131 165.337 775.643 165.04 775.136 165.151C774.648 165.263 774.347 165.764 774.46 166.248L774.441 166.229ZM776.601 176.657C776.901 178.423 777.145 180.188 777.371 181.917C777.427 182.382 777.821 182.716 778.272 182.716C778.31 182.716 778.347 182.716 778.385 182.716C778.892 182.661 779.249 182.214 779.173 181.713C778.967 179.947 778.704 178.181 778.404 176.378C778.328 175.895 777.84 175.542 777.352 175.634C776.845 175.709 776.526 176.174 776.601 176.675V176.657ZM657.771 25.6323C656.175 24.8145 654.56 23.9966 652.926 23.1973C652.475 22.9743 651.931 23.1602 651.705 23.6063C651.48 24.0524 651.668 24.5914 652.119 24.8145C653.734 25.6137 655.348 26.413 656.926 27.2308C657.057 27.3052 657.208 27.3238 657.339 27.3238C657.658 27.3238 657.977 27.1379 658.146 26.8405C658.372 26.3944 658.203 25.8554 657.752 25.6137L657.771 25.6323ZM771.549 155.969C772.094 157.679 772.601 159.389 773.089 161.08C773.202 161.471 773.577 161.731 773.972 161.731C774.047 161.731 774.141 161.731 774.216 161.694C774.704 161.564 774.986 161.062 774.854 160.578C774.366 158.868 773.859 157.158 773.296 155.43C773.146 154.946 772.639 154.686 772.15 154.835C771.662 154.984 771.399 155.485 771.549 155.969ZM777.896 187.196C778.028 188.98 778.122 190.765 778.178 192.493C778.178 192.977 778.591 193.367 779.098 193.367H779.117C779.624 193.367 780.018 192.94 780 192.438C779.943 190.672 779.849 188.869 779.718 187.047C779.68 186.545 779.23 186.174 778.742 186.211C778.235 186.248 777.859 186.676 777.896 187.177V187.196ZM769.841 150.932C769.972 151.303 770.329 151.545 770.704 151.545C770.798 151.545 770.911 151.545 771.005 151.489C771.474 151.322 771.737 150.801 771.568 150.337C770.986 148.664 770.348 146.972 769.69 145.281C769.503 144.816 768.977 144.575 768.507 144.76C768.038 144.946 767.794 145.467 767.981 145.931C768.639 147.604 769.24 149.277 769.841 150.932ZM751.194 112.604C751.363 112.883 751.663 113.031 751.963 113.031C752.132 113.031 752.302 112.994 752.452 112.901C752.884 112.641 753.015 112.083 752.752 111.656C751.813 110.15 750.837 108.626 749.842 107.12C749.56 106.693 748.997 106.581 748.583 106.86C748.151 107.139 748.039 107.697 748.32 108.106C749.316 109.611 750.273 111.098 751.212 112.604H751.194ZM761.578 131.284C761.728 131.6 762.066 131.786 762.404 131.786C762.536 131.786 762.667 131.749 762.799 131.693C763.249 131.47 763.437 130.931 763.231 130.485C762.442 128.887 761.634 127.288 760.808 125.671C760.583 125.225 760.019 125.058 759.569 125.281C759.118 125.504 758.949 126.061 759.174 126.507C760.001 128.106 760.808 129.686 761.578 131.266V131.284ZM743.269 241.769C741.56 241.769 739.795 241.639 737.992 241.416C737.504 241.36 737.035 241.713 736.978 242.197C736.922 242.699 737.279 243.145 737.767 243.2C739.645 243.424 741.485 243.554 743.269 243.554C743.776 243.554 744.189 243.145 744.189 242.661C744.189 242.16 743.795 241.751 743.288 241.751L743.269 241.769ZM712.829 232.977C711.289 232.178 709.712 231.323 708.135 230.412C707.703 230.171 707.139 230.319 706.895 230.747C706.651 231.174 706.801 231.732 707.233 231.974C708.848 232.903 710.444 233.758 712.003 234.576C712.134 234.65 712.285 234.669 712.416 234.669C712.735 234.669 713.055 234.483 713.224 234.186C713.449 233.739 713.28 233.2 712.829 232.959V232.977ZM762.911 235.598C761.522 236.658 760.057 237.587 758.498 238.386C758.048 238.609 757.879 239.167 758.104 239.613C758.273 239.929 758.592 240.096 758.912 240.096C759.062 240.096 759.193 240.059 759.325 240.003C760.958 239.167 762.555 238.163 764.019 237.048C764.414 236.751 764.489 236.174 764.188 235.784C763.869 235.394 763.306 235.319 762.911 235.617V235.598ZM767.193 141.489C767.662 141.303 767.888 140.764 767.681 140.299C766.986 138.664 766.273 137.009 765.522 135.374C765.315 134.928 764.77 134.723 764.32 134.928C763.85 135.132 763.662 135.671 763.869 136.117C764.62 137.753 765.334 139.37 766.01 141.006C766.16 141.359 766.498 141.563 766.855 141.563C766.967 141.563 767.099 141.545 767.212 141.489H767.193ZM758.235 120.95C757.372 119.388 756.47 117.827 755.55 116.266C755.306 115.838 754.743 115.689 754.311 115.95C753.879 116.21 753.729 116.749 753.992 117.176C754.912 118.719 755.794 120.262 756.639 121.823C756.808 122.121 757.109 122.288 757.447 122.288C757.597 122.288 757.747 122.251 757.879 122.176C758.329 121.935 758.48 121.377 758.235 120.95ZM775.793 218.014C775.305 217.847 774.798 218.089 774.629 218.572C774.028 220.263 773.352 221.88 772.601 223.423C772.376 223.869 772.563 224.408 773.033 224.631C773.164 224.687 773.296 224.724 773.427 224.724C773.765 224.724 774.084 224.539 774.253 224.223C775.042 222.624 775.737 220.933 776.357 219.185C776.526 218.721 776.282 218.2 775.793 218.033V218.014ZM779.136 196.936C778.591 196.917 778.216 197.308 778.197 197.81C778.141 199.613 778.047 201.378 777.878 203.088C777.84 203.59 778.197 204.018 778.704 204.074C778.723 204.074 778.76 204.074 778.779 204.074C779.249 204.074 779.643 203.72 779.68 203.256C779.849 201.508 779.943 199.687 780 197.865C780 197.363 779.624 196.954 779.117 196.936H779.136ZM753.672 240.319C752.039 240.821 750.311 241.193 748.546 241.435C748.039 241.509 747.701 241.955 747.757 242.457C747.813 242.903 748.208 243.238 748.659 243.238C748.696 243.238 748.734 243.238 748.79 243.238C750.649 242.977 752.489 242.587 754.217 242.067C754.705 241.918 754.968 241.416 754.818 240.933C754.668 240.45 754.161 240.189 753.672 240.338V240.319ZM778.272 207.587C777.784 207.512 777.296 207.847 777.221 208.33C776.939 210.096 776.563 211.843 776.15 213.497C776.019 213.981 776.319 214.464 776.807 214.594C776.882 214.594 776.958 214.613 777.033 214.613C777.446 214.613 777.821 214.334 777.915 213.925C778.347 212.215 778.704 210.431 779.004 208.609C779.08 208.107 778.742 207.642 778.253 207.568L778.272 207.587ZM771.268 227.68C770.855 227.401 770.272 227.513 770.01 227.94C769.033 229.408 767.944 230.803 766.798 232.048C766.46 232.42 766.479 232.996 766.855 233.33C767.024 233.479 767.249 233.572 767.474 233.572C767.719 233.572 767.963 233.479 768.15 233.275C769.371 231.955 770.517 230.487 771.549 228.944C771.831 228.535 771.718 227.959 771.287 227.698L771.268 227.68ZM726.556 77.436C725.336 76.1163 724.096 74.8152 722.838 73.514C722.481 73.1609 721.918 73.1423 721.542 73.4955C721.186 73.8486 721.167 74.4062 721.524 74.778C722.782 76.0605 724.002 77.3617 725.204 78.6628C725.392 78.8487 725.636 78.9602 725.88 78.9602C726.106 78.9602 726.331 78.8859 726.5 78.7186C726.875 78.384 726.894 77.8078 726.556 77.436ZM722.594 237.345C720.979 236.713 719.327 236.026 717.674 235.282C717.223 235.078 716.679 235.282 716.453 235.728C716.247 236.174 716.453 236.713 716.904 236.918C718.594 237.68 720.284 238.386 721.937 239.037C722.049 239.074 722.162 239.093 722.275 239.093C722.632 239.093 722.988 238.87 723.12 238.516C723.308 238.052 723.063 237.531 722.594 237.345ZM718.388 71.2278C718.613 71.2278 718.857 71.1348 719.026 70.9675C719.383 70.6144 719.383 70.0382 719.026 69.685C717.749 68.421 716.453 67.1757 715.139 65.9303C714.782 65.5771 714.2 65.5957 713.843 65.9675C713.486 66.3206 713.505 66.8968 713.881 67.25C715.195 68.4768 716.472 69.7222 717.749 70.9675C717.918 71.1348 718.162 71.2278 718.388 71.2278ZM743.72 98.2356C743.419 97.8267 742.856 97.7337 742.443 98.0311C742.03 98.3285 741.936 98.8861 742.236 99.2951C743.288 100.745 744.339 102.195 745.335 103.645C745.504 103.905 745.804 104.035 746.086 104.035C746.274 104.035 746.443 103.979 746.612 103.868C747.025 103.589 747.137 103.013 746.837 102.604C745.823 101.135 744.771 99.6668 743.701 98.217L743.72 98.2356ZM739.757 95.3731C739.945 95.3731 740.152 95.3173 740.302 95.1872C740.696 94.8898 740.79 94.3136 740.471 93.9232C739.382 92.5106 738.274 91.0979 737.129 89.6853C736.809 89.2949 736.246 89.2392 735.852 89.5366C735.457 89.8526 735.401 90.4102 735.701 90.8005C736.828 92.1946 737.936 93.6073 739.006 95.0013C739.194 95.243 739.457 95.3545 739.739 95.3545L739.757 95.3731ZM732.791 240.487C731.119 240.115 729.392 239.65 727.645 239.111C727.157 238.963 726.65 239.223 726.5 239.706C726.35 240.189 726.613 240.691 727.101 240.84C728.885 241.398 730.669 241.862 732.396 242.253C732.471 242.253 732.528 242.271 732.603 242.271C733.016 242.271 733.392 241.992 733.486 241.565C733.598 241.082 733.279 240.598 732.791 240.487ZM730.18 81.4324C729.842 81.0606 729.26 81.0234 728.885 81.358C728.509 81.6926 728.472 82.2502 728.81 82.6406C729.993 83.9789 731.176 85.3358 732.321 86.6927C732.509 86.9157 732.753 87.0087 733.016 87.0087C733.223 87.0087 733.429 86.9343 733.598 86.8042C733.993 86.4882 734.03 85.912 733.711 85.5216C732.565 84.1462 731.382 82.7893 730.18 81.4324Z" fill="#FF5722"/>
<path d="M618.655 8.68039C614.186 6.91457 608.402 5.55767 608.008 6.50564C607.632 7.4722 612.778 10.3905 617.247 12.1563C617.66 12.3236 618.054 12.4723 618.449 12.621C618.674 13.2344 619.162 14.5355 619.782 16.1712C619.763 16.1712 619.763 16.134 619.726 16.1154L618.524 15.6508C618.374 15.595 618.205 15.6879 618.13 15.8552L617.66 17.0077C617.585 17.1749 617.66 17.3608 617.81 17.4166L619.012 17.8813C619.012 17.8813 619.144 17.8813 619.219 17.8813L620.608 18.4389C621.134 19.833 621.697 21.3572 622.261 22.8442L621.078 22.3795C620.928 22.3237 620.759 22.4167 620.683 22.5839L620.214 23.7364C620.139 23.9037 620.214 24.0895 620.364 24.1453L621.566 24.61C621.566 24.61 621.697 24.61 621.773 24.61L623.125 25.149C624.571 28.9595 625.791 32.138 625.866 32.2123C626.073 32.4168 627.876 33.0488 627.876 33.0488C628.289 33.2161 628.645 33.309 628.664 33.2532C628.664 33.2161 628.232 32.993 627.838 32.8257L626.524 25.0933C626.862 25.2048 627.143 25.2234 627.162 25.149C627.2 25.0375 626.899 24.833 626.486 24.6658H626.448L626.186 23.123C626.505 23.2159 626.768 23.2531 626.805 23.1602C626.843 23.0486 626.542 22.8442 626.129 22.6769L625.885 21.2828L625.998 20.3162C626.373 20.4464 626.711 20.5021 626.749 20.3906C626.786 20.2791 626.486 20.0746 626.073 19.9073H626.054L626.261 17.9556C626.636 18.0857 626.955 18.1229 626.993 18.03C627.031 17.9184 626.73 17.714 626.317 17.5467H626.298L626.486 15.7623C629.509 16.9147 630.711 17.3422 632.927 18.2158C635.162 19.0895 637.377 19.7772 639.293 20.2791C640.082 22.3423 641.621 26.4873 641.621 26.4873L642.842 27.0821L643.687 21.1899C644.119 21.2456 644.476 21.2642 644.739 21.2642C645.696 21.5616 646.297 21.7103 646.335 21.636C646.372 21.543 645.847 21.2456 644.983 20.8367C644.795 20.6694 644.495 20.4464 644.081 20.1861L647.574 15.279L646.278 14.8887C646.278 14.8887 642.034 16.9891 640.1 17.9184C638.429 17.0262 636.457 16.0411 634.373 15.0374C631.594 13.9407 630.392 13.4388 627.857 12.3979L628.946 10.9853C629.359 11.1525 629.735 11.2083 629.772 11.0968C629.81 11.0038 629.547 10.818 629.171 10.6507L630.373 9.08932H630.392C630.805 9.25661 631.181 9.31237 631.218 9.20085C631.256 9.10791 630.993 8.90344 630.617 8.75474L631.218 7.97406L632.364 7.11903C632.777 7.28632 633.152 7.34208 633.19 7.23056C633.227 7.13762 633.021 6.98892 632.72 6.84022L633.979 5.91084H634.016C634.429 6.09671 634.805 6.13389 634.842 6.04095C634.88 5.94801 634.655 5.78072 634.335 5.63202L640.664 0.910763C641.058 1.05946 641.546 1.20817 641.565 1.17099C641.584 1.11523 641.265 0.947939 640.851 0.78065C640.851 0.78065 639.124 -3.05176e-05 638.823 -3.05176e-05C638.711 -3.05176e-05 635.612 1.48698 631.932 3.27139L630.58 2.73235C630.58 2.73235 630.505 2.60224 630.448 2.58365L629.246 2.11896C629.096 2.0632 628.927 2.15613 628.852 2.32342L628.383 3.47586C628.307 3.64314 628.383 3.82902 628.533 3.88478L629.716 4.34947C628.27 5.0558 626.805 5.76213 625.453 6.43129L624.064 5.87366C624.064 5.87366 623.988 5.74355 623.932 5.72496L622.73 5.26027C622.58 5.20451 622.411 5.29744 622.336 5.46473L621.866 6.61717C621.791 6.78445 621.866 6.97033 622.017 7.02609L623.219 7.49078C623.219 7.49078 623.275 7.49078 623.294 7.49078C621.735 8.25288 620.496 8.86627 619.895 9.16367C619.5 9.01497 619.106 8.84768 618.693 8.68039H618.655Z" fill="#FF5722"/>
<path d="M500.689 194.836C496.427 197.047 491.601 200.468 492.07 201.397C492.558 202.308 498.154 200.356 502.436 198.144C502.83 197.94 503.206 197.754 503.581 197.549C504.201 197.772 505.515 198.256 507.168 198.869C507.149 198.869 507.112 198.869 507.093 198.869L505.947 199.464C505.816 199.538 505.76 199.724 505.853 199.891L506.436 200.988C506.529 201.155 506.698 201.23 506.849 201.155L507.994 200.561C507.994 200.561 508.088 200.468 508.107 200.393L509.44 199.705C510.849 200.226 512.388 200.784 513.891 201.341L512.764 201.917C512.632 201.992 512.576 202.178 512.67 202.345L513.252 203.442C513.346 203.609 513.515 203.683 513.665 203.609L514.811 203.014C514.811 203.014 514.905 202.921 514.923 202.847L516.219 202.178C520.069 203.572 523.299 204.743 523.43 204.724C523.712 204.687 525.383 203.758 525.383 203.758C525.777 203.553 526.078 203.349 526.059 203.293C526.04 203.256 525.571 203.442 525.195 203.646L518.416 199.594C518.717 199.408 518.923 199.222 518.867 199.148C518.811 199.055 518.454 199.148 518.059 199.334H518.022L516.689 198.553C516.97 198.386 517.158 198.2 517.121 198.107C517.064 198.014 516.707 198.107 516.313 198.293L515.092 197.568L514.416 196.862C514.773 196.657 515.017 196.453 514.961 196.36C514.905 196.267 514.548 196.36 514.154 196.546H514.135L512.783 195.133C513.14 194.947 513.384 194.724 513.327 194.631C513.271 194.538 512.914 194.631 512.52 194.817L511.28 193.516C514.135 192.01 515.243 191.378 517.365 190.282C519.505 189.185 521.477 187.977 523.111 186.861C525.214 187.624 529.364 189.166 529.364 189.166L530.603 188.646L526.641 184.166C526.979 183.869 527.223 183.627 527.392 183.441C528.237 182.921 528.763 182.568 528.707 182.475C528.669 182.382 528.087 182.586 527.205 182.977C526.942 183.014 526.585 183.088 526.115 183.218L524.651 177.382L523.505 178.088C523.505 178.088 522.341 182.642 521.778 184.705C519.994 185.374 517.966 186.211 515.825 187.122C513.177 188.479 511.994 189.055 509.553 190.282L509.177 188.534C509.572 188.33 509.853 188.07 509.797 187.977C509.741 187.884 509.421 187.977 509.065 188.125L508.651 186.211H508.67C509.065 185.988 509.346 185.746 509.29 185.653C509.234 185.56 508.914 185.653 508.558 185.821L508.351 184.873L508.445 183.46C508.839 183.255 509.121 182.995 509.065 182.902C509.027 182.828 508.764 182.865 508.445 182.995L508.539 181.452H508.576C508.971 181.229 509.252 180.988 509.196 180.876C509.158 180.802 508.877 180.839 508.558 180.988L509.065 173.162C509.44 172.958 509.872 172.698 509.853 172.66C509.835 172.623 509.496 172.735 509.083 172.958C509.083 172.958 507.356 173.776 507.168 173.999C507.093 174.092 506.21 177.382 505.159 181.304L503.863 181.973C503.863 181.973 503.732 181.954 503.656 181.973L502.511 182.568C502.379 182.642 502.323 182.828 502.417 182.995L502.999 184.092C503.093 184.259 503.262 184.334 503.412 184.259L504.539 183.683C504.126 185.226 503.713 186.787 503.337 188.237L502.004 188.925C502.004 188.925 501.872 188.906 501.797 188.925L500.652 189.519C500.52 189.594 500.464 189.78 500.558 189.947L501.14 191.044C501.234 191.211 501.403 191.285 501.553 191.211L502.699 190.616C502.699 190.616 502.717 190.579 502.736 190.56C502.304 192.233 501.948 193.553 501.779 194.204C501.403 194.389 501.027 194.594 500.633 194.798L500.689 194.836Z" fill="#FF5722"/>
<path d="M130.586 41.5991C134.341 38.6251 138.416 34.3314 137.759 33.5321C137.102 32.7328 131.975 35.7069 128.22 38.6995C127.882 38.9783 127.544 39.2385 127.224 39.4987C126.567 39.3872 125.196 39.1642 123.45 38.8853C123.469 38.8853 123.506 38.8853 123.525 38.8853L124.539 38.0861C124.671 37.9931 124.671 37.7887 124.539 37.6586L123.75 36.692C123.638 36.5433 123.45 36.5061 123.319 36.6176L122.305 37.4169C122.305 37.4169 122.229 37.5284 122.211 37.6028L121.028 38.5322C119.544 38.2905 117.929 38.0303 116.333 37.7701L117.328 36.9894C117.46 36.8965 117.46 36.692 117.328 36.5619L116.54 35.5953C116.427 35.4466 116.239 35.4095 116.108 35.521L115.094 36.3202C115.094 36.3202 115.018 36.4318 115 36.5061L113.854 37.3983C109.798 36.7478 106.399 36.2273 106.287 36.2645C106.005 36.3574 104.559 37.5842 104.559 37.5842C104.202 37.863 103.958 38.1232 103.977 38.1604C104.014 38.1976 104.427 37.9188 104.765 37.6586L112.221 40.3538C111.958 40.5954 111.807 40.8185 111.864 40.8928C111.939 40.9857 112.277 40.8184 112.615 40.5396L112.652 40.5025L114.117 41.0415C113.873 41.2646 113.723 41.4876 113.779 41.562C113.854 41.6549 114.192 41.4876 114.53 41.2088L115.864 41.6735L116.671 42.2497C116.371 42.5099 116.164 42.7702 116.22 42.8445C116.295 42.9374 116.633 42.7702 116.971 42.4913H116.99L118.586 43.6066C118.286 43.8668 118.079 44.1271 118.154 44.2014C118.23 44.2943 118.568 44.127 118.906 43.8482L120.37 44.8891C117.873 46.9152 116.896 47.733 115.037 49.2201C113.159 50.7071 111.451 52.2684 110.08 53.6625C107.864 53.3279 103.489 52.603 103.489 52.603L102.362 53.3465L107.113 56.9897C106.85 57.3429 106.643 57.6217 106.531 57.8447C105.798 58.5139 105.366 58.96 105.423 59.0343C105.479 59.1087 106.005 58.8113 106.794 58.2536C107.038 58.1793 107.376 58.012 107.808 57.8075L110.38 63.2537L111.375 62.3429C111.375 62.3429 111.638 57.6588 111.789 55.5213C113.404 54.5175 115.244 53.3279 117.159 52.0082C119.488 50.168 120.539 49.3873 122.699 47.7145L123.394 49.3502C123.037 49.6476 122.812 49.9264 122.887 50.0193C122.943 50.0937 123.243 49.9636 123.581 49.7219L124.351 51.5249H124.333C123.976 51.8223 123.75 52.1197 123.826 52.1941C123.882 52.2684 124.201 52.1383 124.52 51.8967L124.915 52.7889L125.103 54.183C124.746 54.4618 124.52 54.7592 124.595 54.8521C124.652 54.9265 124.896 54.8335 125.178 54.6291L125.384 56.1718H125.347C124.99 56.4692 124.764 56.7666 124.84 56.8596C124.896 56.9339 125.159 56.8224 125.441 56.6179L126.455 64.4062C126.135 64.685 125.76 65.0195 125.779 65.0567C125.816 65.0939 126.117 64.908 126.473 64.6292C126.473 64.6292 128.013 63.4954 128.145 63.2537C128.201 63.1608 128.426 59.7592 128.689 55.7071L129.835 54.8149C129.835 54.8149 129.985 54.8149 130.041 54.7778L131.055 53.9785C131.187 53.8856 131.187 53.6811 131.055 53.551L130.267 52.5844C130.154 52.4357 129.966 52.3985 129.835 52.5101L128.839 53.2908C128.933 51.6922 129.027 50.0937 129.121 48.5881L130.304 47.6587C130.304 47.6587 130.454 47.6587 130.511 47.6215L131.525 46.8223C131.656 46.7293 131.656 46.5249 131.525 46.3947L130.736 45.4282C130.623 45.2795 130.436 45.2423 130.304 45.3538L129.29 46.1531C129.29 46.1531 129.29 46.1903 129.253 46.2275C129.365 44.4988 129.44 43.1419 129.478 42.4728C129.797 42.2125 130.135 41.9523 130.492 41.6735L130.586 41.5991Z" fill="#FF5722"/>
</g>
<defs>
<clipPath id="clip0_1_89">
<rect width="779.925" height="287.383" fill="white" transform="translate(0.0752869)"/>
</clipPath>
</defs>
</svg>
