<svg width="32" height="32" viewBox="0 0 32 32" fill="none" xmlns="http://www.w3.org/2000/svg">
<path fill-rule="evenodd" clip-rule="evenodd" d="M22.586 4C24.374 4 26.094 4.70667 27.3593 5.97467C28.626 7.24 29.334 8.94667 29.334 10.7333V21.2667C29.334 24.9867 26.3073 28 22.586 28H9.414C5.69266 28 2.66733 24.9867 2.66733 21.2667V10.7333C2.66733 7.01333 5.67933 4 9.414 4H22.586ZM24.7073 12.72L24.814 12.6133C25.1327 12.2267 25.1327 11.6667 24.7993 11.28C24.614 11.0813 24.3593 10.96 24.094 10.9333C23.814 10.9187 23.5473 11.0133 23.346 11.2L17.334 16C16.5607 16.6413 15.4527 16.6413 14.6673 16L8.66733 11.2C8.25266 10.8933 7.67933 10.9333 7.33399 11.2933C6.974 11.6533 6.93399 12.2267 7.23933 12.6267L7.41399 12.8L13.4807 17.5333C14.2273 18.12 15.1327 18.44 16.0807 18.44C17.026 18.44 17.9473 18.12 18.6927 17.5333L24.7073 12.72Z" fill="#191825" fill-opacity="0.75"/>
</svg>
